# xmcd
#
# Track frame offsets:
# 150
# 19291
# 34792
# 50396
# 63511
# 78202
# 92998
# 109099
# 128144
# 145468
# 157845
# 175488
#
# Disc length: 2555 seconds
#
#
# Revision: 1
# Processed by: cddbd v1.5.2PL0 Copyright (c) Steve Scherf et al.
# Submitted via: FreeRIP 2.945 
#
DISCID=9f09f90c
DTITLE=Joao Chagas Leite - Jeito Brasil
DYEAR=2004
DGENRE=Nativa Gaucha
TTITLE0=Jeito Brasil
TTITLE1=Rosais de Maio
TTITLE2=Paixao Andarilha
TTITLE3=Cançao para um Mundo Novo
TTITLE4=Lagrimas da Flor
TTITLE5=Idade de Sonhar
TTITLE6=Suspiros do Verde
TTITLE7=Fe
TTITLE8=Flor Campesina
TTITLE9=Canto do Sul
TTITLE10=Dialogo da Mata
TTITLE11=Pelo Sul
EXTD=
EXTT0=
EXTT1=
EXTT2=
EXTT3=
EXTT4=
EXTT5=
EXTT6=
EXTT7=
EXTT8=
EXTT9=
EXTT10=
EXTT11=
PLAYORDER=
